<svg width="38" height="38" viewBox="0 0 38 38" xmlns="http://www.w3.org/2000/svg" xmlns:xlink="http://www.w3.org/1999/xlink"><defs><circle id="b" cx="19" cy="19" r="19"/><filter x="-50%" y="-50%" width="200%" height="200%" filterUnits="objectBoundingBox" id="a"><feOffset in="SourceAlpha" result="shadowOffsetOuter1"/><feGaussianBlur stdDeviation="4.5" in="shadowOffsetOuter1" result="shadowBlurOuter1"/><feColorMatrix values="0 0 0 0 1 0 0 0 0 1 0 0 0 0 1 0 0 0 0.5 0" in="shadowBlurOuter1"/></filter></defs><g fill="none" fill-rule="evenodd"><use fill="#000" filter="url(#a)" xlink:href="#b"/><use fill="#FF0C0C" xlink:href="#b"/><path d="M17.6 26.4h3c1 0 2-.2 3-.6.8-.4 1.6-1 2.3-1.6.7-.7 1.3-1.5 1.7-2.4.4-1 .6-2 .6-3s-.2-2-.6-2.8c-.4-1-1-1.7-1.8-2.4s-1.7-1.3-2.7-1.6c-.4-.2-1-.4-1.4-.4.4.5.8 1 1.2 1.8.3 1 .5 1.7.5 2.7 0 1-.2 2-.5 2.7-.4.8-1 1.5-1.5 2-.7.7-1.4 1.2-2.2 1.5-.3.2-.7.3-1 .3l-1 .2v3.7zm-.8-15c.7 0 1.3 0 2 .4.5.2 1 .5 1.5 1l1 1.4c.3.6.4 1.2.4 2 0 .5 0 1-.4 1.7-.2.5-.6 1-1 1.4l-1.6 1c-.6.2-1.2.3-2 .3h-1v5.7H12v-15h4.8z" fill="#FFF"/></g></svg>