

<svg width="47px" height="47px" viewBox="0 0 47 47" version="1.1" xmlns="http://www.w3.org/2000/svg" xmlns:xlink="http://www.w3.org/1999/xlink">
    <g id="Page-1" stroke="none" stroke-width="1" fill="none" fill-rule="evenodd">
        <g id="Desktop-HD-Copy-13" transform="translate(-37.000000, -33.000000)" fill="#eee">
            <g id="logo" transform="translate(37.000000, 33.000000)">
                <path d="M23.5,47 C10.5213084,47 0,36.4786916 0,23.5 C0,10.5213084 10.5213084,0 23.5,0 C36.4786916,0 47,10.5213084 47,23.5 C47,36.4786916 36.4786916,47 23.5,47 Z M28.8128855,14.2703484 C30.0996427,15.8219639 30.7430128,17.8808338 30.7430128,20.4470041 C30.7430128,23.3678638 29.9095018,25.6314961 28.2424548,27.237969 C26.5754077,28.8444418 24.1736612,29.6476662 21.037143,29.6476662 L21.037143,32.8749785 L27.0396213,32.8749785 C28.3533968,32.8749785 29.5787266,32.6176801 30.7156477,32.1030756 C31.8525687,31.588471 32.8463071,30.8995753 33.6968925,30.0363677 C34.5474778,29.1731601 35.2127772,28.1730163 35.6928106,27.0359063 C36.1728439,25.8987963 36.412857,24.7160536 36.412857,23.4876428 C36.412857,22.2426319 36.1686331,21.0515893 35.6801782,19.9144793 C35.1917232,18.7773692 34.5222131,17.7813754 33.6716277,16.9264679 C32.8210423,16.0715604 31.827304,15.3868146 30.6903829,14.8722101 C30.0870758,14.5991352 29.4612452,14.3985151 28.8128855,14.2703484 Z M17.8768981,32.8746713 L17.8768981,26.6496477 L20.8076133,26.6496477 C22.9467092,26.6496477 24.5846931,26.1018511 25.7216142,25.0062414 C26.8585352,23.9106318 27.4269872,22.3668414 27.4269872,20.3748238 C27.4269872,18.3828063 26.8585352,16.8390159 25.7216142,15.7434062 C24.5846931,14.6477966 22.9467092,14.1 20.8076133,14.1 L12.925,14.1 L12.925,32.8746713 L17.8768981,32.8746713 Z" id="Combined-Shape"></path>
            </g>
        </g>
    </g>
</svg>
