<svg width="38" height="38" viewBox="0 0 38 38" xmlns="http://www.w3.org/2000/svg" xmlns:xlink="http://www.w3.org/1999/xlink">
  <defs>
    <circle id="b" cx="19" cy="19" r="19"/>
    <filter x="-50%" y="-50%" width="200%" height="200%" filterUnits="objectBoundingBox" id="a">
      <feOffset in="SourceAlpha" result="shadowOffsetOuter1"/>
      <feGaussianBlur stdDeviation="4.5" in="shadowOffsetOuter1" result="shadowBlurOuter1"/>
      <feColorMatrix values="0 0 0 0 1 0 0 0 0 1 0 0 0 0 1 0 0 0 0.5 0" in="shadowBlurOuter1"/>
    </filter>
  </defs>
  <g fill="none" fill-rule="evenodd">
    <use fill="#000" filter="url(#a)" xlink:href="#b"/>
    <use fill="#FF0C0C" xlink:href="#b"/>
    <path d="M17.564 26.43h3.177c.977-.055 1.906-.267 2.79-.637.884-.37 1.68-.886 2.387-1.546.764-.727 1.344-1.545 1.74-2.454.396-.91.594-1.868.594-2.878s-.197-1.97-.593-2.88c-.396-.908-.976-1.726-1.74-2.453-.764-.714-1.63-1.256-2.6-1.626-.46-.177-.933-.312-1.417-.404.523.55.944 1.177 1.258 1.875.372.827.56 1.713.56 2.64 0 .926-.188 1.812-.56 2.638-.36.8-.86 1.51-1.494 2.112-.63.6-1.36 1.068-2.183 1.404-.33.136-.67.244-1.018.326-.532.124-.898.183-.898.183v-.102 3.8zm-.748-15.03c.68 0 1.315.12 1.91.364.593.242 1.113.575 1.56 1 .444.424.794.92 1.05 1.484.253.566.38 1.172.38 1.818 0 .647-.127 1.253-.38 1.818-.256.566-.606 1.06-1.05 1.485-.447.423-.967.757-1.56 1-.595.24-1.23.363-1.91.363h-1.252v5.696H12V11.4H16.815z" fill="#FFF"/>
  </g>
</svg>
