<?xml version="1.0" encoding="UTF-8"?>
<svg width="40px" height="40px" viewBox="0 0 40 40" version="1.1" xmlns="http://www.w3.org/2000/svg" xmlns:xlink="http://www.w3.org/1999/xlink">
    <!-- Generator: Sketch 43.2 (39069) - http://www.bohemiancoding.com/sketch -->
    <title>Artboard 2</title>
    <desc>Created with Sketch.</desc>
    <defs></defs>
    <g id="Page-1" stroke="none" stroke-width="1" fill="none" fill-rule="evenodd">
        <g id="Artboard-2">
            <circle id="Oval-Copy-2" fill-opacity="0.687952899" fill="#7F8995" cx="20" cy="20" r="20"></circle>
            <g id="Group-Copy-2" transform="translate(11.000000, 12.000000)" fill="#FFFFFF">
                <path d="M13.5216047,0.144977335 C14.0734002,0.254055363 14.606022,0.424795951 15.1194748,0.657200081 C16.0870672,1.09516138 16.9328019,1.67792373 17.6567044,2.4055046 C18.3806069,3.13308547 18.9504027,3.98073979 19.3661091,4.94849298 C19.7818154,5.91624618 19.9896655,6.92989947 19.9896655,7.98948326 C19.9896655,9.03493927 19.7853991,10.0415288 19.37686,11.009282 C18.968321,11.9770352 18.4021088,12.8282214 17.6782063,13.5628661 C16.9543039,14.2975109 16.1085691,14.8838051 15.1409768,15.3217664 C14.1733844,15.7597277 13.1305504,15.9787051 12.0124437,15.9787051 L6.9039515,15.9787051 L6.9039515,13.2320563 C9.57332864,13.2320563 11.6173683,12.5484611 13.0361317,11.1812502 C14.4548951,9.81403924 15.1642662,7.88754364 15.1642662,5.40170558 C15.1642662,3.21773089 14.6167172,1.4655012 13.5216047,0.144977335 L13.5216047,0.144977335 Z" id="Combined-Shape"></path>
                <path d="M4.21438134,15.9784437 L0,15.9784437 L0,0 L6.70860704,0 C8.5291142,0 9.92314307,0.466209875 10.8907355,1.39864361 C11.8583279,2.33107735 12.3421168,3.64494154 12.3421168,5.34027561 C12.3421168,7.03560968 11.8583279,8.34947388 10.8907355,9.28190761 C9.92314307,10.2143414 8.5291142,10.6805512 6.70860704,10.6805512 L4.21438134,10.6805512 L4.21438134,15.9784437 Z" id="Path-Copy-3"></path>
            </g>
        </g>
    </g>
</svg>