<svg width="230px" height="230px" viewBox="0 0 230 230" version="1.1" xmlns="http://www.w3.org/2000/svg" xmlns:xlink="http://www.w3.org/1999/xlink">
    <style>
      #favicon {
        stroke: black;
      }
      @media (prefers-color-scheme: dark) {
        #favicon {
          stroke: white;
        }
      }
    </style>
  <path id="favicon" stroke-width="20px" fill="transparent" stroke="white" d="M185.666667,9 C166.152606,9 150.333333,24.8192722 150.333333,44.3333333 L150.333333,185.666667 C150.333333,205.180728 166.152606,221 185.666667,221 C205.180728,221 221,205.180728 221,185.666667 C221,166.152606 205.180728,150.333333 185.666667,150.333333 L44.3333333,150.333333 C24.8192722,150.333333 9,166.152606 9,185.666667 C9,205.180728 24.8192722,221 44.3333333,221 C63.8473945,221 79.6666667,205.180728 79.6666667,185.666667 L79.6666667,44.3333333 C79.6666667,24.8192722 63.8473945,9 44.3333333,9 C24.8192722,9 9,24.8192722 9,44.3333333 C9,63.8473945 24.8192722,79.6666667 44.3333333,79.6666667 L185.666667,79.6666667 C205.180728,79.6666667 221,63.8473945 221,44.3333333 C221,24.8192722 205.180728,9 185.666667,9 Z"></path>
</svg>