
<svg width="78px" height="78px" viewBox="0 0 78 78" version="1.1" xmlns="http://www.w3.org/2000/svg" xmlns:xlink="http://www.w3.org/1999/xlink">
    <style>
      #favicon {
        stroke: black;
      }
      @media (prefers-color-scheme: dark) {
        #favicon {
          stroke: white;
        }
      }
    </style>
    <g id="Page-1" stroke="none" stroke-width="1" fill="none" fill-rule="evenodd" stroke-linecap="round" stroke-linejoin="round">
        <g id="favicon" id="Desktop-Copy-5" transform="translate(-16.000000, -16.000000)" stroke-width="6.60394305">
            <g id="command-(1)" transform="translate(19.713262, 19.713262)">
            <path d="M58.8112306,0 C52.3151214,0 47.0489845,5.26613696 47.0489845,11.7622461 L47.0489845,58.8112306 C47.0489845,65.3073397 52.3151214,70.5734767 58.8112306,70.5734767 C65.3073397,70.5734767 70.5734767,65.3073397 70.5734767,58.8112306 C70.5734767,52.3151214 65.3073397,47.0489845 58.8112306,47.0489845 L11.7622461,47.0489845 C5.26613696,47.0489845 0,52.3151214 0,58.8112306 C0,65.3073397 5.26613696,70.5734767 11.7622461,70.5734767 C18.2583553,70.5734767 23.5244922,65.3073397 23.5244922,58.8112306 L23.5244922,11.7622461 C23.5244922,5.26613696 18.2583553,0 11.7622461,0 C5.26613696,0 0,5.26613696 0,11.7622461 C-3.48232439e-15,18.2583553 5.26613696,23.5244922 11.7622461,23.5244922 L58.8112306,23.5244922 C65.3073397,23.5244922 70.5734767,18.2583553 70.5734767,11.7622461 C70.5734767,5.26613696 65.3073397,0 58.8112306,0 Z" id="Path"></path>
            </g>
        </g>
    </g>
</svg>
