<?xml version="1.0" encoding="UTF-8"?>
<svg width="110px" height="110px" viewBox="0 0 110 110" version="1.1" xmlns="http://www.w3.org/2000/svg" xmlns:xlink="http://www.w3.org/1999/xlink">
<style>
    #favicon path {
      fill: black;
    }
    @media (prefers-color-scheme: dark) {
      #favicon path {
        fill: white;
      }
    }
  </style>
    <!-- Generator: Sketch 52.6 (67491) - http://www.bohemiancoding.com/sketch -->
    <title>Artboard 2</title>
    <desc>Created with Sketch.</desc>
    <g id="favicon" stroke="none" stroke-width="1" fill="none" fill-rule="evenodd">
        <path d="M54.9421491,110 C24.598438,110 1.42108547e-14,85.401562 1.42108547e-14,55.0578509 C1.42108547e-14,24.7141398 24.598438,0.115701723 54.9421491,0.115701723 C85.2858602,0.115701723 109.884298,24.7141398 109.884298,55.0578509 C109.884298,85.401562 85.2858602,110 54.9421491,110 Z M70.757214,28 C74.5231577,32.4201698 76.4061048,38.285382 76.4061048,45.5957678 C76.4061048,53.9165763 73.9666736,60.3651062 69.0877381,64.9415509 C64.2088026,69.5179956 57.1796268,71.8061836 48,71.8061836 L48,81 L65.5674134,81 C69.4124313,81 72.9985961,80.2670203 76.3260154,78.801039 C79.6534348,77.3350577 82.5618021,75.3725638 85.0512047,72.9134984 C87.5406073,70.454433 89.4877346,67.6052701 90.892645,64.3659243 C92.2975553,61.1265785 93,57.7572365 93,54.2577973 C93,50.7110683 92.2852318,47.3180818 90.8556738,44.078736 C89.4261159,40.8393902 87.466665,38.0020496 84.9772624,35.5666291 C82.4878598,33.1312085 79.5794925,31.1805368 76.2520731,29.7145555 C74.4863783,28.9366327 72.654764,28.3651153 70.757214,28 Z M38.3414634,81 L38.3414634,63.0954907 L46.8292683,63.0954907 C53.0244212,63.0954907 57.7682762,61.5199097 61.0609756,58.3687003 C64.353675,55.2174909 66,50.777217 66,45.0477454 C66,39.3182737 64.353675,34.8779998 61.0609756,31.7267905 C57.7682762,28.5755811 53.0244212,27 46.8292683,27 L24,27 L24,81 L38.3414634,81 Z" id="Shape"></path>
    </g>
</svg>